MutatorSansInstance_200-800.ufo
<glyph name="comma" format="2">
  <advance width="273"/>
  <unicode hex="002C"/>
  <outline>
    <contour>
      <point x="176" y="0" type="line"/>
      <point x="176" y="220" type="line"/>
      <point x="98" y="220" type="line"/>
      <point x="98" y="0" type="line"/>
      <point x="139" y="-10" type="line"/>
      <point x="129" y="12" type="line"/>
      <point x="107" y="-103" type="line"/>
      <point x="131" y="-105" type="line"/>
    </contour>
  </outline>
</glyph>
<glyph name="period" format="2">
  <advance width="272"/>
  <unicode hex="002E"/>
  <outline>
    <contour>
      <point x="97" y="0" type="line"/>
      <point x="175" y="0" type="line"/>
      <point x="175" y="220" type="line"/>
      <point x="97" y="220" type="line"/>
    </contour>
  </outline>
</glyph>
<glyph name="A" format="2">
  <advance width="1068"/>
  <unicode hex="0041"/>
  <outline>
    <contour>
      <point x="45" y="0" type="line"/>
      <point x="144" y="0" type="line"/>
      <point x="544" y="720" type="line"/>
      <point x="459" y="720" type="line"/>
    </contour>
    <contour>
      <point x="213" y="194" type="line"/>
      <point x="837" y="194" type="line"/>
      <point x="837" y="262" type="line"/>
      <point x="213" y="262" type="line"/>
    </contour>
    <contour>
      <point x="899" y="0" type="line"/>
      <point x="1029" y="0" type="line"/>
      <point x="615" y="720" type="line"/>
      <point x="493" y="720" type="line"/>
    </contour>
    <contour>
      <point x="471" y="639" type="line"/>
      <point x="593" y="639" type="line"/>
      <point x="593" y="720" type="line"/>
      <point x="471" y="720" type="line"/>
    </contour>
  </outline>
</glyph>
<glyph name="B" format="2">
  <advance width="1058"/>
  <unicode hex="0042"/>
  <outline>
    <contour>
      <point x="97" y="0" type="line"/>
      <point x="209" y="0" type="line"/>
      <point x="209" y="720" type="line"/>
      <point x="97" y="720" type="line"/>
    </contour>
    <contour>
      <point x="186" y="334" type="line"/>
      <point x="736" y="334" type="line" smooth="yes"/>
      <point x="837" y="334"/>
      <point x="886" y="282"/>
      <point x="886" y="204" type="curve" smooth="yes"/>
      <point x="886" y="127"/>
      <point x="836" y="76"/>
      <point x="734" y="76" type="curve" smooth="yes"/>
      <point x="186" y="76" type="line"/>
      <point x="186" y="0" type="line"/>
      <point x="756" y="0" type="line" smooth="yes"/>
      <point x="934" y="0"/>
      <point x="997" y="85"/>
      <point x="997" y="192" type="curve" smooth="yes"/>
      <point x="997" y="290"/>
      <point x="943" y="362"/>
      <point x="826" y="377" type="curve"/>
      <point x="811" y="352" type="line"/>
      <point x="901" y="374"/>
      <point x="950" y="440"/>
      <point x="950" y="526" type="curve" smooth="yes"/>
      <point x="950" y="637"/>
      <point x="886" y="720"/>
      <point x="706" y="720" type="curve" smooth="yes"/>
      <point x="186" y="720" type="line"/>
      <point x="186" y="646" type="line"/>
      <point x="688" y="646" type="line" smooth="yes"/>
      <point x="793" y="646"/>
      <point x="839" y="595"/>
      <point x="839" y="519" type="curve" smooth="yes"/>
      <point x="839" y="440"/>
      <point x="790" y="390"/>
      <point x="688" y="390" type="curve" smooth="yes"/>
      <point x="186" y="390" type="line"/>
    </contour>
  </outline>
</glyph>
<glyph name="C" format="2">
  <advance width="1166"/>
  <unicode hex="0043"/>
  <outline>
    <contour>
      <point x="988" y="293" type="line"/>
      <point x="958" y="136"/>
      <point x="818" y="72"/>
      <point x="611" y="72" type="curve" smooth="yes"/>
      <point x="562" y="72" type="line" smooth="yes"/>
      <point x="328" y="72"/>
      <point x="180" y="156"/>
      <point x="180" y="362" type="curve" smooth="yes"/>
      <point x="180" y="567"/>
      <point x="328" y="648"/>
      <point x="562" y="648" type="curve" smooth="yes"/>
      <point x="611" y="648" type="line" smooth="yes"/>
      <point x="817" y="648"/>
      <point x="956" y="587"/>
      <point x="988" y="435" type="curve"/>
      <point x="1099" y="447" type="line"/>
      <point x="1061" y="640"/>
      <point x="883" y="730"/>
      <point x="620" y="730" type="curve" smooth="yes"/>
      <point x="553" y="730" type="line" smooth="yes"/>
      <point x="254" y="730"/>
      <point x="66" y="615"/>
      <point x="66" y="362" type="curve" smooth="yes"/>
      <point x="66" y="108"/>
      <point x="254" y="-10"/>
      <point x="553" y="-10" type="curve" smooth="yes"/>
      <point x="620" y="-10" type="line" smooth="yes"/>
      <point x="885" y="-10"/>
      <point x="1063" y="83"/>
      <point x="1100" y="281" type="curve"/>
    </contour>
  </outline>
</glyph>
<glyph name="D" format="2">
  <advance width="1067"/>
  <unicode hex="0044"/>
  <outline>
    <contour>
      <point x="97" y="0" type="line"/>
      <point x="208" y="0" type="line"/>
      <point x="208" y="720" type="line"/>
      <point x="97" y="720" type="line"/>
    </contour>
    <contour>
      <point x="183" y="640" type="line"/>
      <point x="498" y="640" type="line" smooth="yes"/>
      <point x="735" y="640"/>
      <point x="887" y="567"/>
      <point x="887" y="362" type="curve" smooth="yes"/>
      <point x="887" y="156"/>
      <point x="735" y="80"/>
      <point x="498" y="80" type="curve" smooth="yes"/>
      <point x="182" y="80" type="line"/>
      <point x="182" y="0" type="line"/>
      <point x="506" y="0" type="line" smooth="yes"/>
      <point x="808" y="0"/>
      <point x="1001" y="108"/>
      <point x="1001" y="362" type="curve" smooth="yes"/>
      <point x="1001" y="615"/>
      <point x="808" y="720"/>
      <point x="506" y="720" type="curve" smooth="yes"/>
      <point x="183" y="720" type="line"/>
    </contour>
  </outline>
</glyph>
<glyph name="E" format="2">
  <advance width="982"/>
  <unicode hex="0045"/>
  <anchor x="479" y="765" name="top"/>
  <outline>
    <contour>
      <point x="98" y="0" type="line"/>
      <point x="208" y="0" type="line"/>
      <point x="208" y="720" type="line"/>
      <point x="98" y="720" type="line"/>
    </contour>
    <contour>
      <point x="132" y="637" type="line"/>
      <point x="888" y="637" type="line"/>
      <point x="888" y="720" type="line"/>
      <point x="132" y="720" type="line"/>
    </contour>
    <contour>
      <point x="132" y="0" type="line"/>
      <point x="888" y="0" type="line"/>
      <point x="888" y="83" type="line"/>
      <point x="132" y="83" type="line"/>
    </contour>
    <contour>
      <point x="132" y="330" type="line"/>
      <point x="773" y="330" type="line"/>
      <point x="773" y="393" type="line"/>
      <point x="132" y="393" type="line"/>
    </contour>
  </outline>
</glyph>
<glyph name="F" format="2">
  <advance width="1016"/>
  <unicode hex="0046"/>
  <outline>
    <contour>
      <point x="97" y="0" type="line"/>
      <point x="209" y="0" type="line"/>
      <point x="209" y="720" type="line"/>
      <point x="97" y="720" type="line"/>
    </contour>
    <contour>
      <point x="132" y="638" type="line"/>
      <point x="919" y="638" type="line"/>
      <point x="919" y="720" type="line"/>
      <point x="132" y="720" type="line"/>
    </contour>
    <contour>
      <point x="132" y="287" type="line"/>
      <point x="884" y="287" type="line"/>
      <point x="884" y="361" type="line"/>
      <point x="132" y="361" type="line"/>
    </contour>
  </outline>
</glyph>
<glyph name="G" format="2">
  <advance width="1218"/>
  <unicode hex="0047"/>
  <outline>
    <contour>
      <point x="460" y="303" type="line"/>
      <point x="1021" y="303" type="line"/>
      <point x="1021" y="216" type="line"/>
      <point x="1070" y="0" type="line"/>
      <point x="1130" y="0" type="line"/>
      <point x="1130" y="348" type="line"/>
      <point x="460" y="348" type="line"/>
    </contour>
    <contour>
      <point x="1021" y="297" type="line"/>
      <point x="991" y="138"/>
      <point x="851" y="72"/>
      <point x="643" y="72" type="curve" smooth="yes"/>
      <point x="562" y="72" type="line" smooth="yes"/>
      <point x="328" y="72"/>
      <point x="180" y="156"/>
      <point x="180" y="362" type="curve" smooth="yes"/>
      <point x="180" y="567"/>
      <point x="330" y="648"/>
      <point x="564" y="648" type="curve" smooth="yes"/>
      <point x="645" y="648" type="line" smooth="yes"/>
      <point x="851" y="648"/>
      <point x="988" y="587"/>
      <point x="1020" y="435" type="curve"/>
      <point x="1131" y="447" type="line"/>
      <point x="1093" y="640"/>
      <point x="916" y="730"/>
      <point x="654" y="730" type="curve" smooth="yes"/>
      <point x="555" y="730" type="line" smooth="yes"/>
      <point x="255" y="730"/>
      <point x="66" y="615"/>
      <point x="66" y="362" type="curve" smooth="yes"/>
      <point x="66" y="108"/>
      <point x="254" y="-10"/>
      <point x="553" y="-10" type="curve" smooth="yes"/>
      <point x="623" y="-10" type="line" smooth="yes"/>
      <point x="888" y="-10"/>
      <point x="1057" y="84"/>
      <point x="1093" y="286" type="curve"/>
    </contour>
  </outline>
</glyph>
<glyph name="H" format="2">
  <advance width="1051"/>
  <unicode hex="0048"/>
  <outline>
    <contour>
      <point x="97" y="0" type="line"/>
      <point x="209" y="0" type="line"/>
      <point x="209" y="720" type="line"/>
      <point x="97" y="720" type="line"/>
    </contour>
    <contour>
      <point x="147" y="321" type="line"/>
      <point x="909" y="321" type="line"/>
      <point x="909" y="402" type="line"/>
      <point x="147" y="402" type="line"/>
    </contour>
    <contour>
      <point x="842" y="0" type="line"/>
      <point x="954" y="0" type="line"/>
      <point x="954" y="720" type="line"/>
      <point x="842" y="720" type="line"/>
    </contour>
  </outline>
</glyph>
<glyph name="I" format="2">
  <advance width="832"/>
  <unicode hex="0049"/>
  <outline>
    <contour>
      <point x="363" y="0" type="line"/>
      <point x="475" y="0" type="line"/>
      <point x="475" y="720" type="line"/>
      <point x="363" y="720" type="line"/>
    </contour>
    <contour>
      <point x="97" y="637" type="line"/>
      <point x="735" y="637" type="line"/>
      <point x="735" y="720" type="line"/>
      <point x="97" y="720" type="line"/>
    </contour>
    <contour>
      <point x="97" y="0" type="line"/>
      <point x="735" y="0" type="line"/>
      <point x="735" y="83" type="line"/>
      <point x="97" y="83" type="line"/>
    </contour>
  </outline>
</glyph>
<glyph name="J" format="2">
  <advance width="790"/>
  <unicode hex="004A"/>
  <outline>
    <contour>
      <point x="247" y="-10" type="curve" smooth="yes"/>
      <point x="521" y="-10"/>
      <point x="693" y="102"/>
      <point x="693" y="344" type="curve" smooth="yes"/>
      <point x="693" y="720" type="line"/>
      <point x="579" y="720" type="line"/>
      <point x="579" y="351" type="line" smooth="yes"/>
      <point x="579" y="157"/>
      <point x="451" y="77"/>
      <point x="246" y="77" type="curve" smooth="yes"/>
      <point x="202" y="77"/>
      <point x="158" y="82"/>
      <point x="116" y="90" type="curve"/>
      <point x="97" y="4" type="line"/>
      <point x="143" y="-6"/>
      <point x="193" y="-10"/>
    </contour>
  </outline>
</glyph>
<glyph name="K" format="2">
  <advance width="964"/>
  <unicode hex="004B"/>
  <outline>
    <contour>
      <point x="97" y="0" type="line"/>
      <point x="209" y="0" type="line"/>
      <point x="209" y="720" type="line"/>
      <point x="97" y="720" type="line"/>
    </contour>
    <contour>
      <point x="162" y="305" type="line"/>
      <point x="260" y="305" type="line"/>
      <point x="743" y="0" type="line"/>
      <point x="905" y="0" type="line"/>
      <point x="342" y="374" type="line"/>
      <point x="271" y="360" type="line"/>
      <point x="162" y="360" type="line"/>
    </contour>
    <contour>
      <point x="239" y="342" type="line"/>
      <point x="313" y="311" type="line"/>
      <point x="902" y="720" type="line"/>
      <point x="762" y="720" type="line"/>
    </contour>
  </outline>
</glyph>
<glyph name="L" format="2">
  <advance width="873"/>
  <unicode hex="004C"/>
  <outline>
    <contour>
      <point x="97" y="0" type="line"/>
      <point x="209" y="0" type="line"/>
      <point x="209" y="720" type="line"/>
      <point x="97" y="720" type="line"/>
    </contour>
    <contour>
      <point x="132" y="0" type="line"/>
      <point x="839" y="0" type="line"/>
      <point x="839" y="84" type="line"/>
      <point x="132" y="84" type="line"/>
    </contour>
  </outline>
</glyph>
<glyph name="M" format="2">
  <advance width="1135"/>
  <unicode hex="004D"/>
  <outline>
    <contour>
      <point x="97" y="0" type="line"/>
      <point x="190" y="0" type="line"/>
      <point x="190" y="720" type="line"/>
      <point x="97" y="720" type="line"/>
    </contour>
    <contour>
      <point x="1038" y="0" type="line"/>
      <point x="1038" y="720" type="line"/>
      <point x="944" y="720" type="line"/>
      <point x="944" y="0" type="line"/>
    </contour>
    <contour>
      <point x="984" y="611" type="line"/>
      <point x="944" y="720" type="line"/>
      <point x="546" y="331" type="line"/>
      <point x="589" y="331" type="line"/>
      <point x="190" y="720" type="line"/>
      <point x="151" y="611" type="line"/>
      <point x="543" y="228" type="line"/>
      <point x="592" y="228" type="line"/>
    </contour>
  </outline>
</glyph>
<glyph name="N" format="2">
  <advance width="1072"/>
  <unicode hex="004E"/>
  <outline>
    <contour>
      <point x="97" y="0" type="line"/>
      <point x="190" y="0" type="line"/>
      <point x="190" y="720" type="line"/>
      <point x="97" y="720" type="line"/>
    </contour>
    <contour>
      <point x="150" y="622" type="line"/>
      <point x="883" y="0" type="line"/>
      <point x="924" y="99" type="line"/>
      <point x="190" y="720" type="line"/>
    </contour>
    <contour>
      <point x="883" y="0" type="line"/>
      <point x="975" y="0" type="line"/>
      <point x="975" y="720" type="line"/>
      <point x="883" y="720" type="line"/>
    </contour>
  </outline>
</glyph>
<glyph name="O" format="2">
  <advance width="1181"/>
  <unicode hex="004F"/>
  <outline>
    <contour>
      <point x="553" y="-10" type="curve" smooth="yes"/>
      <point x="626" y="-10" type="line" smooth="yes"/>
      <point x="926" y="-10"/>
      <point x="1114" y="108"/>
      <point x="1114" y="362" type="curve" smooth="yes"/>
      <point x="1114" y="615"/>
      <point x="926" y="730"/>
      <point x="626" y="730" type="curve" smooth="yes"/>
      <point x="553" y="730" type="line" smooth="yes"/>
      <point x="254" y="730"/>
      <point x="66" y="615"/>
      <point x="66" y="362" type="curve" smooth="yes"/>
      <point x="66" y="108"/>
      <point x="254" y="-10"/>
    </contour>
    <contour>
      <point x="562" y="72" type="line" smooth="yes"/>
      <point x="328" y="72"/>
      <point x="180" y="156"/>
      <point x="180" y="362" type="curve" smooth="yes"/>
      <point x="180" y="567"/>
      <point x="328" y="648"/>
      <point x="562" y="648" type="curve" smooth="yes"/>
      <point x="618" y="648" type="line" smooth="yes"/>
      <point x="853" y="648"/>
      <point x="1000" y="567"/>
      <point x="1000" y="362" type="curve" smooth="yes"/>
      <point x="1000" y="156"/>
      <point x="853" y="72"/>
      <point x="618" y="72" type="curve" smooth="yes"/>
    </contour>
  </outline>
</glyph>
<glyph name="P" format="2">
  <advance width="991"/>
  <unicode hex="0050"/>
  <outline>
    <contour>
      <point x="97" y="0" type="line"/>
      <point x="209" y="0" type="line"/>
      <point x="209" y="720" type="line"/>
      <point x="97" y="720" type="line"/>
    </contour>
    <contour>
      <point x="163" y="632" type="line"/>
      <point x="558" y="632" type="line" smooth="yes"/>
      <point x="783" y="632"/>
      <point x="853" y="560"/>
      <point x="853" y="438" type="curve" smooth="yes"/>
      <point x="853" y="314"/>
      <point x="783" y="244"/>
      <point x="558" y="244" type="curve" smooth="yes"/>
      <point x="163" y="244" type="line"/>
      <point x="163" y="156" type="line"/>
      <point x="545" y="156" type="line" smooth="yes"/>
      <point x="880" y="156"/>
      <point x="956" y="275"/>
      <point x="956" y="438" type="curve" smooth="yes"/>
      <point x="956" y="602"/>
      <point x="880" y="720"/>
      <point x="546" y="720" type="curve" smooth="yes"/>
      <point x="163" y="720" type="line"/>
    </contour>
  </outline>
</glyph>
<glyph name="Q" format="2">
  <advance width="1181"/>
  <unicode hex="0051"/>
  <outline>
    <contour>
      <point x="612" y="-130" type="line"/>
      <point x="727" y="-130" type="line"/>
      <point x="621" y="44" type="line"/>
      <point x="517" y="30" type="line"/>
    </contour>
    <component base="O"/>
  </outline>
</glyph>
<glyph name="R" format="2">
  <advance width="1031"/>
  <unicode hex="0052"/>
  <outline>
    <contour>
      <point x="815" y="0" type="line"/>
      <point x="948" y="0" type="line"/>
      <point x="837" y="106" type="line" smooth="yes"/>
      <point x="769" y="167"/>
      <point x="726" y="197"/>
      <point x="679" y="195" type="curve"/>
      <point x="611" y="195" type="line"/>
    </contour>
    <contour>
      <point x="97" y="0" type="line"/>
      <point x="209" y="0" type="line"/>
      <point x="209" y="720" type="line"/>
      <point x="97" y="720" type="line"/>
    </contour>
    <contour>
      <point x="163" y="632" type="line"/>
      <point x="565" y="632" type="line" smooth="yes"/>
      <point x="784" y="632"/>
      <point x="851" y="560"/>
      <point x="851" y="438" type="curve" smooth="yes"/>
      <point x="851" y="314"/>
      <point x="784" y="244"/>
      <point x="565" y="244" type="curve" smooth="yes"/>
      <point x="163" y="244" type="line"/>
      <point x="163" y="168" type="line"/>
      <point x="546" y="168" type="line" smooth="yes"/>
      <point x="880" y="168"/>
      <point x="957" y="285"/>
      <point x="957" y="444" type="curve" smooth="yes"/>
      <point x="957" y="604"/>
      <point x="880" y="720"/>
      <point x="546" y="720" type="curve" smooth="yes"/>
      <point x="163" y="720" type="line"/>
    </contour>
  </outline>
</glyph>
<glyph name="S" format="2">
  <advance width="1046"/>
  <unicode hex="0053"/>
  <outline>
    <contour>
      <point x="963" y="198" type="curve" smooth="yes"/>
      <point x="963" y="333"/>
      <point x="879" y="383"/>
      <point x="618" y="402" type="curve" smooth="yes"/>
      <point x="463" y="413" type="line" smooth="yes"/>
      <point x="295" y="426"/>
      <point x="201" y="451"/>
      <point x="201" y="531" type="curve" smooth="yes"/>
      <point x="201" y="605"/>
      <point x="284" y="651"/>
      <point x="485" y="651" type="curve" smooth="yes"/>
      <point x="541" y="651" type="line" smooth="yes"/>
      <point x="711" y="651"/>
      <point x="830" y="620"/>
      <point x="922" y="580" type="curve"/>
      <point x="946" y="653" type="line"/>
      <point x="849" y="696"/>
      <point x="707" y="729"/>
      <point x="551" y="729" type="curve" smooth="yes"/>
      <point x="509" y="729" type="line" smooth="yes"/>
      <point x="228" y="729"/>
      <point x="103" y="658"/>
      <point x="103" y="524" type="curve" smooth="yes"/>
      <point x="103" y="399"/>
      <point x="196" y="346"/>
      <point x="447" y="327" type="curve" smooth="yes"/>
      <point x="599" y="316" type="line" smooth="yes"/>
      <point x="780" y="301"/>
      <point x="863" y="283"/>
      <point x="863" y="198" type="curve" smooth="yes"/>
      <point x="863" y="115"/>
      <point x="774" y="69"/>
      <point x="534" y="69" type="curve" smooth="yes"/>
      <point x="480" y="69" type="line" smooth="yes"/>
      <point x="327" y="69"/>
      <point x="201" y="99"/>
      <point x="104" y="141" type="curve"/>
      <point x="83" y="67" type="line"/>
      <point x="186" y="23"/>
      <point x="332" y="-9"/>
      <point x="471" y="-9" type="curve" smooth="yes"/>
      <point x="515" y="-9" type="line" smooth="yes"/>
      <point x="839" y="-9"/>
      <point x="963" y="70"/>
    </contour>
  </outline>
</glyph>
<glyph name="T" format="2">
  <advance width="1026"/>
  <unicode hex="0054"/>
  <outline>
    <contour>
      <point x="457" y="0" type="line"/>
      <point x="569" y="0" type="line"/>
      <point x="569" y="720" type="line"/>
      <point x="457" y="720" type="line"/>
    </contour>
    <contour>
      <point x="34" y="632" type="line"/>
      <point x="992" y="632" type="line"/>
      <point x="992" y="720" type="line"/>
      <point x="34" y="720" type="line"/>
    </contour>
  </outline>
</glyph>
<glyph name="U" format="2">
  <advance width="1072"/>
  <unicode hex="0055"/>
  <outline>
    <contour>
      <point x="536" y="-10" type="curve" smooth="yes"/>
      <point x="804" y="-10"/>
      <point x="970" y="101"/>
      <point x="970" y="337" type="curve" smooth="yes"/>
      <point x="970" y="720" type="line"/>
      <point x="857" y="720" type="line"/>
      <point x="857" y="335" type="line" smooth="yes"/>
      <point x="857" y="152"/>
      <point x="733" y="76"/>
      <point x="536" y="76" type="curve" smooth="yes"/>
      <point x="340" y="76"/>
      <point x="216" y="152"/>
      <point x="216" y="335" type="curve" smooth="yes"/>
      <point x="216" y="720" type="line"/>
      <point x="102" y="720" type="line"/>
      <point x="102" y="337" type="line" smooth="yes"/>
      <point x="102" y="101"/>
      <point x="267" y="-10"/>
    </contour>
  </outline>
</glyph>
<glyph name="V" format="2">
  <advance width="1054"/>
  <unicode hex="0056"/>
  <outline>
    <contour>
      <point x="1021" y="720" type="line"/>
      <point x="922" y="720" type="line"/>
      <point x="524" y="0" type="line"/>
      <point x="613" y="0" type="line"/>
    </contour>
    <contour>
      <point x="163" y="720" type="line"/>
      <point x="32" y="720" type="line"/>
      <point x="443" y="0" type="line"/>
      <point x="566" y="0" type="line"/>
    </contour>
    <contour>
      <point x="597" y="81" type="line"/>
      <point x="469" y="81" type="line"/>
      <point x="469" y="0" type="line"/>
      <point x="597" y="0" type="line"/>
    </contour>
  </outline>
</glyph>
<glyph name="W" format="2">
  <advance width="1213"/>
  <unicode hex="0057"/>
  <outline>
    <contour>
      <point x="1178" y="720" type="line"/>
      <point x="1074" y="720" type="line"/>
      <point x="857" y="104" type="line"/>
      <point x="871" y="104" type="line"/>
      <point x="646" y="720" type="line"/>
      <point x="572" y="720" type="line"/>
      <point x="358" y="97" type="line"/>
      <point x="375" y="97" type="line"/>
      <point x="148" y="720" type="line"/>
      <point x="33" y="720" type="line"/>
      <point x="292" y="0" type="line"/>
      <point x="393" y="0" type="line"/>
      <point x="607" y="613" type="line"/>
      <point x="584" y="613" type="line"/>
      <point x="817" y="0" type="line"/>
      <point x="926" y="0" type="line"/>
    </contour>
  </outline>
</glyph>
<glyph name="X" format="2">
  <advance width="952"/>
  <unicode hex="0058"/>
  <outline>
    <contour>
      <point x="780" y="0" type="line"/>
      <point x="920" y="0" type="line"/>
      <point x="516" y="390" type="line"/>
      <point x="179" y="720" type="line"/>
      <point x="40" y="720" type="line"/>
      <point x="428" y="352" type="line"/>
    </contour>
    <contour>
      <point x="34" y="-1" type="line"/>
      <point x="152" y="0" type="line"/>
      <point x="480" y="342" type="line"/>
      <point x="519" y="342" type="line"/>
      <point x="911" y="720" type="line"/>
      <point x="792" y="720" type="line"/>
      <point x="465" y="392" type="line"/>
      <point x="424" y="390" type="line"/>
    </contour>
  </outline>
</glyph>
<glyph name="Y" format="2">
  <advance width="924"/>
  <unicode hex="0059"/>
  <outline>
    <contour>
      <point x="898" y="720" type="line"/>
      <point x="794" y="720" type="line"/>
      <point x="448" y="203" type="line"/>
      <point x="512" y="185" type="line"/>
    </contour>
    <contour>
      <point x="148" y="720" type="line"/>
      <point x="26" y="720" type="line"/>
      <point x="410" y="185" type="line"/>
      <point x="505" y="203" type="line"/>
    </contour>
    <contour>
      <point x="518" y="247" type="line"/>
      <point x="406" y="247" type="line"/>
      <point x="406" y="0" type="line"/>
      <point x="518" y="0" type="line"/>
    </contour>
  </outline>
</glyph>
<glyph name="Z" format="2">
  <advance width="1069"/>
  <unicode hex="005A"/>
  <outline>
    <contour>
      <point x="97" y="84" type="line"/>
      <point x="222" y="52" type="line"/>
      <point x="972" y="636" type="line"/>
      <point x="846" y="668" type="line"/>
    </contour>
    <contour>
      <point x="97" y="636" type="line"/>
      <point x="972" y="636" type="line"/>
      <point x="972" y="720" type="line"/>
      <point x="97" y="720" type="line"/>
    </contour>
    <contour>
      <point x="97" y="0" type="line"/>
      <point x="972" y="0" type="line"/>
      <point x="972" y="84" type="line"/>
      <point x="97" y="84" type="line"/>
    </contour>
  </outline>
</glyph>
